<?xml version="1.0" standalone="no"?><!DOCTYPE svg PUBLIC "-//W3C//DTD SVG 1.1//EN" "http://www.w3.org/Graphics/SVG/1.1/DTD/svg11.dtd"><svg t="1772762323991" class="icon" viewBox="0 0 1024 1024" version="1.1" xmlns="http://www.w3.org/2000/svg" p-id="2907" xmlns:xlink="http://www.w3.org/1999/xlink" width="200" height="200"><path d="M512 0C228.8 0 0 228.8 0 512s228.8 512 512 512 512-228.8 512-512S795.2 0 512 0z m0 961.6C264 961.6 62.4 760 62.4 512 62.4 264 264 62.4 512 62.4 760 62.4 961.6 264 961.6 512c0 248-201.6 449.6-449.6 449.6z" p-id="2908"></path><path d="M702.4 480H379.2l107.2-108.8 1.6-1.6c4.8-4.8 6.4-11.2 6.4-17.6s-1.6-12.8-6.4-17.6c-3.2-3.2-6.4-6.4-9.6-8-3.2-1.6-8-3.2-12.8-3.2-8 0-14.4 3.2-19.2 8-1.6 1.6-3.2 3.2-3.2 4.8l-136 137.6c-22.4 22.4-22.4 57.6 0 80l139.2 140.8s0 1.6 1.6 1.6c4.8 4.8 11.2 8 19.2 8 9.6 0 17.6-4.8 22.4-11.2 4.8-4.8 6.4-11.2 6.4-19.2 0-6.4-1.6-12.8-6.4-17.6 0 0 0-1.6-1.6-1.6l-3.2-3.2-105.6-108.8H704c17.6 0 32-14.4 32-30.4s-16-32-33.6-32z" p-id="2909"></path></svg>